<?xml version="1.0" standalone="no"?>
<!DOCTYPE svg PUBLIC "-//W3C//DTD SVG 20010904//EN"
 "http://www.w3.org/TR/2001/REC-SVG-20010904/DTD/svg10.dtd">
<svg version="1.0" xmlns="http://www.w3.org/2000/svg"
 width="1035.000000pt" height="1035.000000pt" viewBox="0 0 1035.000000 1035.000000"
 preserveAspectRatio="xMidYMid meet">
<metadata>
Created by potrace 1.14, written by Peter Selinger 2001-2017
</metadata>
<g transform="translate(0.000000,1035.000000) scale(0.100000,-0.100000)"
fill="#000000" stroke="none">
<path d="M5027 9884 c-1 -1 -54 -5 -117 -8 -63 -4 -126 -8 -140 -11 -14 -2
-56 -6 -94 -10 -38 -3 -79 -7 -90 -10 -12 -2 -39 -7 -61 -10 -64 -8 -107 -15
-160 -26 -27 -5 -66 -12 -85 -15 -61 -9 -421 -104 -510 -134 -650 -218 -1194
-528 -1685 -960 -96 -84 -367 -359 -447 -453 -440 -515 -761 -1096 -947 -1712
-37 -124 -88 -318 -96 -365 -3 -19 -10 -51 -15 -70 -5 -19 -14 -66 -20 -105
-18 -116 -20 -129 -25 -155 -6 -31 -13 -86 -21 -165 -3 -33 -7 -71 -10 -85 -2
-14 -7 -83 -10 -155 -18 -327 -2 -702 41 -974 3 -13 7 -45 11 -70 4 -25 8 -55
11 -66 2 -11 10 -56 19 -100 24 -128 93 -389 139 -530 115 -352 231 -608 442
-975 199 -345 586 -812 914 -1104 482 -427 1042 -751 1644 -951 163 -54 440
-131 540 -150 97 -18 328 -55 375 -60 30 -3 66 -8 80 -10 22 -4 127 -12 250
-21 63 -4 441 -4 520 1 67 3 195 14 240 19 14 2 54 7 90 11 36 4 74 9 85 11
10 2 37 6 60 9 35 5 211 37 270 49 11 2 85 21 165 41 447 112 868 287 1265
526 126 76 235 167 283 235 50 72 49 44 47 1484 -2 1482 3 1384 -62 1469 -38
50 -59 66 -133 103 l-65 33 -1465 0 c-1608 0 -1499 4 -1598 -63 -92 -61 -143
-164 -136 -271 10 -143 131 -266 285 -288 30 -4 602 -8 1272 -7 l1217 0 0
-445 c-1 -337 -4 -450 -13 -461 -20 -25 -147 -133 -237 -202 -273 -209 -613
-382 -950 -482 -106 -32 -299 -75 -365 -82 -27 -3 -56 -7 -62 -9 -7 -2 -45 -7
-85 -11 -40 -3 -89 -8 -108 -10 -47 -5 -365 -4 -415 1 -22 2 -65 7 -95 10
-116 11 -132 14 -320 51 -69 14 -197 50 -300 84 -514 172 -990 501 -1331 920
-82 101 -197 258 -212 290 -4 8 -16 29 -27 45 -66 102 -158 283 -215 420 -69
168 -151 442 -170 570 -4 22 -8 47 -10 55 -5 18 -21 130 -32 225 -4 39 -8 165
-8 280 0 231 7 334 35 495 5 30 12 71 15 90 3 19 8 42 10 50 2 8 6 27 9 41 30
174 164 532 284 753 47 87 200 328 238 375 204 252 315 365 535 546 13 11 65
49 114 84 130 92 144 101 149 101 3 0 24 12 48 28 71 45 78 49 203 111 214
106 475 198 668 237 10 2 26 5 35 8 9 3 35 7 57 11 50 7 92 14 125 20 29 5
109 14 195 20 79 7 367 6 430 0 120 -12 151 -15 175 -19 14 -2 46 -7 71 -10
72 -10 96 -15 224 -46 334 -80 644 -217 950 -420 132 -88 164 -100 261 -96
129 4 222 63 280 177 35 70 41 175 15 247 -34 93 -68 128 -221 228 -257 168
-464 273 -750 381 -105 39 -342 109 -430 127 -14 3 -61 12 -105 21 -44 9 -96
18 -115 21 -55 7 -114 16 -130 19 -72 13 -206 19 -430 19 -295 1 -426 -8 -615
-44 -27 -5 -66 -12 -85 -15 -135 -22 -461 -117 -626 -183 -215 -86 -453 -211
-647 -339 -94 -63 -257 -179 -267 -192 -3 -4 -18 -17 -35 -30 -16 -12 -66 -55
-110 -94 -385 -345 -679 -746 -898 -1224 -20 -45 -37 -84 -37 -88 0 -3 -9 -25
-19 -48 -68 -149 -158 -462 -201 -697 -6 -30 -12 -65 -14 -77 -3 -12 -8 -53
-11 -90 -4 -37 -9 -70 -10 -73 -18 -31 -27 -542 -12 -718 77 -940 530 -1831
1242 -2443 299 -257 588 -435 980 -605 217 -94 568 -189 845 -229 71 -11 90
-13 170 -20 41 -3 98 -8 125 -11 112 -9 415 -4 555 11 53 5 70 7 168 20 24 4
80 13 125 21 45 8 96 18 112 20 45 8 247 62 339 91 272 85 639 260 868 415 31
21 59 38 62 38 4 0 6 -96 6 -212 -1 -251 25 -210 -201 -325 -324 -167 -699
-302 -999 -362 -30 -6 -66 -14 -80 -17 -86 -18 -313 -51 -405 -59 -28 -2 -86
-7 -130 -10 -98 -9 -434 -9 -530 -1 -97 8 -172 16 -225 22 -25 3 -58 7 -75 9
-61 7 -223 37 -330 61 -60 14 -119 27 -131 30 -11 2 -68 18 -125 35 -1477 437
-2586 1658 -2873 3164 -13 72 -27 153 -30 180 -4 28 -9 64 -11 80 -32 208 -38
750 -10 926 2 13 6 48 9 77 9 82 40 267 60 368 26 127 140 511 175 589 5 11
28 67 51 125 155 380 410 791 689 1110 69 79 298 310 366 370 693 609 1534
964 2430 1027 188 14 625 7 735 -11 14 -2 50 -7 80 -11 106 -12 255 -37 335
-55 28 -7 57 -13 65 -15 358 -75 850 -273 1188 -478 365 -223 714 -513 968
-807 21 -25 42 -47 45 -50 35 -32 290 -375 319 -431 7 -13 16 -26 19 -29 13
-10 148 -246 212 -370 122 -235 263 -630 324 -904 18 -81 45 -224 55 -291 7
-44 13 -87 15 -95 2 -8 6 -51 10 -95 4 -44 9 -93 11 -110 2 -16 6 -106 9 -200
4 -104 12 -191 22 -225 44 -162 224 -260 388 -213 93 27 159 83 202 172 26 54
27 62 27 216 0 88 -4 205 -8 260 -11 132 -11 129 -31 300 -3 28 -8 57 -10 65
-2 8 -7 35 -10 60 -6 40 -39 213 -51 265 -2 11 -6 31 -9 45 -10 55 -95 351
-129 450 -129 372 -312 746 -523 1067 -65 100 -219 313 -271 375 -336 403
-655 695 -1047 959 -60 41 -119 79 -130 85 -11 6 -62 37 -113 68 -591 358
-1335 589 -2072 642 -80 6 -518 13 -523 8z"/>
</g>
</svg>
