<?xml version="1.0" encoding="UTF-8" standalone="no"?>
<!DOCTYPE svg PUBLIC "-//W3C//DTD SVG 1.1//EN" "http://www.w3.org/Graphics/SVG/1.1/DTD/svg11.dtd">
<!-- Created with Vectornator (http://vectornator.io/) -->
<svg height="100%" stroke-miterlimit="10" style="fill-rule:nonzero;clip-rule:evenodd;stroke-linecap:round;stroke-linejoin:round;" version="1.1" viewBox="0 0 3370.82 2384.24" width="100%" xml:space="preserve" xmlns="http://www.w3.org/2000/svg" xmlns:vectornator="http://vectornator.io" xmlns:xlink="http://www.w3.org/1999/xlink">
<defs/>
<g id="Layer-1" vectornator:layerName="Layer 1">
<path d="M1800.8 1549.14C1732.33 1592.78 1651.02 1618.06 1563.81 1618.06C1319.94 1618.06 1122.24 1420.35 1122.24 1176.46C1122.24 932.568 1319.94 734.855 1563.81 734.855C1807.68 734.855 2005.38 932.568 2005.38 1176.46" fill="#000000" fill-opacity="0" fill-rule="nonzero" opacity="1" stroke="#000000" stroke-linecap="round" stroke-linejoin="round" stroke-opacity="0.997748" stroke-width="63.8476"/>
</g>
<g id="Layer-2" vectornator:layerName="Layer 2">
<path d="M1792.62 1405.66C1733.38 1466.91 1650.67 1504.93 1559.17 1504.93C1379 1504.93 1232.94 1357.51 1232.94 1175.66C1232.94 993.806 1379 846.385 1559.17 846.385C1629.41 846.385 1694.47 868.793 1747.71 906.913" fill="#000000" fill-opacity="0" fill-rule="nonzero" opacity="1" stroke="#000000" stroke-linecap="round" stroke-linejoin="round" stroke-width="64.924"/>
</g>
<g id="Layer-3" vectornator:layerName="Layer 3">
<path d="M1833.13 1546.03C1833.13 1562.62 1818.75 1576.07 1801.01 1576.07L1801.01 1576.07C1783.27 1576.07 1768.89 1562.62 1768.89 1546.03L1768.89 1288.32C1768.89 1271.73 1783.27 1258.28 1801.01 1258.28L1801.01 1258.28C1818.75 1258.28 1833.13 1271.73 1833.13 1288.32L1833.13 1546.03" fill="#000000" fill-rule="nonzero" opacity="1" stroke="#000000" stroke-linecap="round" stroke-linejoin="round" stroke-opacity="0.997748" stroke-width="4.27738"/>
<path d="M1523.16 1255.44L1800.77 1255.44C1818.41 1255.44 1832.72 1268.6 1832.72 1284.84L1832.72 1284.84C1832.72 1301.08 1818.41 1314.24 1800.77 1314.24L1523.16 1314.24C1505.51 1314.24 1491.2 1301.08 1491.2 1284.84L1491.2 1284.84C1491.2 1268.6 1505.51 1255.44 1523.16 1255.44Z" fill="#000000" fill-rule="nonzero" opacity="1" stroke="#000000" stroke-linecap="round" stroke-linejoin="round" stroke-opacity="0.997748" stroke-width="4.27738"/>
</g>
</svg>
