<?xml version="1.0" encoding="UTF-8" standalone="no"?>
<!DOCTYPE svg PUBLIC "-//W3C//DTD SVG 1.1//EN" "http://www.w3.org/Graphics/SVG/1.1/DTD/svg11.dtd">
<!-- Created with Vectornator (http://vectornator.io/) -->
<svg height="100%" stroke-miterlimit="10" style="fill-rule:nonzero;clip-rule:evenodd;stroke-linecap:round;stroke-linejoin:round;" version="1.1" viewBox="0 0 1033.66 1035.14" width="100%" xml:space="preserve" xmlns="http://www.w3.org/2000/svg" xmlns:vectornator="http://vectornator.io" xmlns:xlink="http://www.w3.org/1999/xlink">
<defs/>
<g id="Layer-1" vectornator:layerName="Layer 1">
<path d="M758.984 892.522C690.512 936.161 609.206 961.446 521.994 961.446C278.122 961.446 80.4243 763.733 80.4243 519.842C80.4243 275.952 278.122 78.2388 521.994 78.2388C765.866 78.2388 963.564 275.952 963.564 519.842" fill="#000000" fill-opacity="0" fill-rule="nonzero" opacity="1" stroke="#ffffff" stroke-linecap="round" stroke-linejoin="round" stroke-width="63.8476"/>
</g>
<g id="Layer-2" vectornator:layerName="Layer 2">
<path d="M761.14 760.56C701.9 821.808 619.196 859.832 527.693 859.832C347.524 859.832 201.467 712.411 201.467 530.559C201.467 348.706 347.524 201.285 527.693 201.285C597.937 201.285 662.994 223.693 716.233 261.813" fill="#000000" fill-opacity="0" fill-rule="nonzero" opacity="1" stroke="#ffffff" stroke-linecap="round" stroke-linejoin="round" stroke-width="64.924"/>
</g>
<g id="Layer-3" vectornator:layerName="Layer 3">
<path d="M796.241 886.032C796.241 902.62 781.861 916.067 764.121 916.067L764.121 916.067C746.382 916.067 732.002 902.62 732.002 886.032L732.002 628.318C732.002 611.731 746.382 598.284 764.121 598.284L764.121 598.284C781.861 598.284 796.241 611.731 796.241 628.318L796.241 886.032" fill="#ffffff" fill-rule="nonzero" opacity="1" stroke="#ffffff" stroke-linecap="round" stroke-linejoin="round" stroke-width="4.27738"/>
<path d="M486.269 595.439L763.878 595.439C781.527 595.439 795.835 608.603 795.835 624.841L795.835 624.841C795.835 641.079 781.527 654.242 763.878 654.242L486.269 654.242C468.619 654.242 454.311 641.079 454.311 624.841L454.311 624.841C454.311 608.603 468.619 595.439 486.269 595.439Z" fill="#ffffff" fill-rule="nonzero" opacity="1" stroke="#ffffff" stroke-linecap="round" stroke-linejoin="round" stroke-width="4.27738"/>
</g>
</svg>
